<svg width="39" height="51" viewBox="0 0 39 51" fill="none" xmlns="http://www.w3.org/2000/svg">
<path d="M37.7436 21.048L21.0386 1.65003C20.8372 1.4193 20.5975 1.23617 20.3335 1.11119C20.0695 0.986219 19.7863 0.921875 19.5002 0.921875C19.2142 0.921875 18.931 0.986219 18.667 1.11119C18.403 1.23617 18.1633 1.4193 17.9619 1.65003L1.25692 21.0726C0.852697 21.5355 0.533455 22.0851 0.317727 22.6894C0.102 23.2937 -0.00591452 23.9407 0.000249956 24.5928V45.2215C-0.00142883 46.4817 0.422258 47.6946 1.18406 48.6105C1.94586 49.5264 2.98778 50.0755 4.09525 50.1448H34.9053C36.0127 50.0755 37.0546 49.5264 37.8164 48.6105C38.5782 47.6946 39.0019 46.4817 39.0002 45.2215V24.5928C39.002 23.2707 38.5514 21.9996 37.7436 21.048ZM15.1669 45.2215V30.4515H23.8336V45.2215H15.1669ZM34.6669 45.2215H28.1669V27.9899C28.1669 27.337 27.9386 26.7108 27.5323 26.2492C27.126 25.7875 26.5749 25.5282 26.0003 25.5282H13.0003C12.4256 25.5282 11.8745 25.7875 11.4682 26.2492C11.0619 26.7108 10.8336 27.337 10.8336 27.9899V45.2215H4.33358V24.4943L19.5002 6.89338L34.6669 24.5928V45.2215Z" fill="white"/>
</svg>
