<svg width="47" height="38" viewBox="0 0 47 38" fill="none" xmlns="http://www.w3.org/2000/svg">
<path d="M0 4.21011V33.6809C0 35.9965 2.32389 37.891 5.22222 37.891H41.7778C44.65 37.891 47 35.9965 47 33.6809V4.21011C47 1.89455 44.65 0 41.7778 0H5.22222C2.32389 0 0 1.89455 0 4.21011ZM31.3333 12.6303C31.3333 16.1247 27.8344 18.9455 23.5 18.9455C19.1656 18.9455 15.6667 16.1247 15.6667 12.6303C15.6667 9.13594 19.1656 6.31517 23.5 6.31517C27.8344 6.31517 31.3333 9.13594 31.3333 12.6303ZM7.83333 29.4708C7.83333 25.2607 18.2778 22.9451 23.5 22.9451C28.7222 22.9451 39.1667 25.2607 39.1667 29.4708V31.5758H7.83333V29.4708Z" fill="#1B1B1B"/>
</svg>
