<svg width="39" height="50" viewBox="0 0 39 50" fill="none" xmlns="http://www.w3.org/2000/svg">
<path d="M37.7436 20.1261L21.0386 0.728157C20.8372 0.497428 20.5975 0.314295 20.3335 0.189319C20.0695 0.0643436 19.7863 0 19.5002 0C19.2142 0 18.931 0.0643436 18.667 0.189319C18.403 0.314295 18.1633 0.497428 17.9619 0.728157L1.25692 20.1507C0.852697 20.6137 0.533455 21.1632 0.317727 21.7675C0.102 22.3718 -0.00591452 23.0188 0.000249956 23.6709V44.2996C-0.00142883 45.5598 0.422258 46.7727 1.18406 47.6886C1.94586 48.6045 2.98778 49.1537 4.09525 49.223H34.9053C36.0127 49.1537 37.0546 48.6045 37.8164 47.6886C38.5782 46.7727 39.0019 45.5598 39.0002 44.2996V23.6709C39.002 22.3488 38.5514 21.0777 37.7436 20.1261ZM15.1669 44.2996V29.5296H23.8336V44.2996H15.1669ZM34.6669 44.2996H28.1669V27.068C28.1669 26.4151 27.9386 25.789 27.5323 25.3273C27.126 24.8657 26.5749 24.6063 26.0003 24.6063H13.0003C12.4256 24.6063 11.8745 24.8657 11.4682 25.3273C11.0619 25.789 10.8336 26.4151 10.8336 27.068V44.2996H4.33358V23.5724L19.5002 5.9715L34.6669 23.6709V44.2996Z" fill="#1B1B1B"/>
</svg>
