<svg width="21" height="25" viewBox="0 0 21 25" fill="none" xmlns="http://www.w3.org/2000/svg">
<path d="M10.5 24.945C10.2969 24.945 10.125 24.8507 9.98438 24.6621L2.67188 15.2013C2.59375 15.1175 2.48633 14.9813 2.34961 14.7927C2.21289 14.6041 1.99609 14.2609 1.69922 13.7633C1.40234 13.2656 1.13672 12.7549 0.902344 12.231C0.667969 11.7071 0.458984 11.0733 0.275391 10.3294C0.0917969 9.58552 0 8.8626 0 8.16063C0 5.85565 0.496094 4.05358 1.48828 2.75441C2.48047 1.45525 3.85156 0.805664 5.60156 0.805664C6.08594 0.805664 6.58008 0.918293 7.08398 1.14355C7.58789 1.36881 8.05664 1.67265 8.49023 2.05506C8.92383 2.43748 9.29688 2.79632 9.60938 3.13159C9.92188 3.46686 10.2188 3.82308 10.5 4.20026C10.7812 3.82308 11.0781 3.46686 11.3906 3.13159C11.7031 2.79632 12.0762 2.43748 12.5098 2.05506C12.9434 1.67265 13.4121 1.36881 13.916 1.14355C14.4199 0.918293 14.9141 0.805664 15.3984 0.805664C17.1484 0.805664 18.5195 1.45525 19.5117 2.75441C20.5039 4.05358 21 5.85565 21 8.16063C21 10.4761 20.1055 12.8334 18.3164 15.2327L11.0156 24.6621C10.875 24.8507 10.7031 24.945 10.5 24.945Z" fill="#C40233"/>
</svg>
