<svg width="47" height="44" viewBox="0 0 47 44" fill="none" xmlns="http://www.w3.org/2000/svg">
<path d="M0 5.67738V39.1607C0 41.7915 2.32389 43.944 5.22222 43.944H41.7778C44.65 43.944 47 41.7915 47 39.1607V5.67738C47 3.04654 44.65 0.894043 41.7778 0.894043H5.22222C2.32389 0.894043 0 3.04654 0 5.67738ZM31.3333 15.244C31.3333 19.2142 27.8344 22.419 23.5 22.419C19.1656 22.419 15.6667 19.2142 15.6667 15.244C15.6667 11.2739 19.1656 8.06904 23.5 8.06904C27.8344 8.06904 31.3333 11.2739 31.3333 15.244ZM7.83333 34.3774C7.83333 29.594 18.2778 26.9632 23.5 26.9632C28.7222 26.9632 39.1667 29.594 39.1667 34.3774V36.769H7.83333V34.3774Z" fill="white"/>
</svg>
