<svg width="21" height="18" viewBox="0 0 21 18" fill="none" xmlns="http://www.w3.org/2000/svg">
<path d="M10.5 18C10.2969 18 10.125 17.9297 9.98438 17.7891L2.67188 10.7344C2.59375 10.6719 2.48633 10.5703 2.34961 10.4297C2.21289 10.2891 1.99609 10.0332 1.69922 9.66211C1.40234 9.29102 1.13672 8.91016 0.902344 8.51953C0.667969 8.12891 0.458984 7.65625 0.275391 7.10156C0.0917969 6.54688 0 6.00781 0 5.48438C0 3.76562 0.496094 2.42188 1.48828 1.45312C2.48047 0.484375 3.85156 0 5.60156 0C6.08594 0 6.58008 0.0839844 7.08398 0.251953C7.58789 0.419922 8.05664 0.646484 8.49023 0.931641C8.92383 1.2168 9.29688 1.48438 9.60938 1.73438C9.92188 1.98438 10.2188 2.25 10.5 2.53125C10.7812 2.25 11.0781 1.98438 11.3906 1.73438C11.7031 1.48438 12.0762 1.2168 12.5098 0.931641C12.9434 0.646484 13.4121 0.419922 13.916 0.251953C14.4199 0.0839844 14.9141 0 15.3984 0C17.1484 0 18.5195 0.484375 19.5117 1.45312C20.5039 2.42188 21 3.76562 21 5.48438C21 7.21094 20.1055 8.96875 18.3164 10.7578L11.0156 17.7891C10.875 17.9297 10.7031 18 10.5 18Z" fill="#C40233"/>
</svg>
