<svg width="47" height="39" viewBox="0 0 47 39" fill="none" xmlns="http://www.w3.org/2000/svg">
<path d="M0 4.8439V34.3147C0 36.6302 2.32389 38.5248 5.22222 38.5248H41.7778C44.65 38.5248 47 36.6302 47 34.3147V4.8439C47 2.52834 44.65 0.633789 41.7778 0.633789H5.22222C2.32389 0.633789 0 2.52834 0 4.8439ZM31.3333 13.2641C31.3333 16.7585 27.8344 19.5793 23.5 19.5793C19.1656 19.5793 15.6667 16.7585 15.6667 13.2641C15.6667 9.76973 19.1656 6.94896 23.5 6.94896C27.8344 6.94896 31.3333 9.76973 31.3333 13.2641ZM7.83333 30.1046C7.83333 25.8945 18.2778 23.5789 23.5 23.5789C28.7222 23.5789 39.1667 25.8945 39.1667 30.1046V32.2096H7.83333V30.1046Z" fill="white"/>
</svg>
